<svg id="chart" width="1145" height="896">
        <defs>
            <linearGradient id="colorGradient">

            <stop offset="0%" stop-color="#440154"></stop><stop offset="25%" stop-color="#3b528b"></stop><stop offset="50%" stop-color="#21918c"></stop><stop offset="75%" stop-color="#5ec962"></stop><stop offset="100%" stop-color="#fde725"></stop></linearGradient>
        </defs>
        <g id="shapes"><rect class="bar" width="172" height="673.8947368421053" y="122.10526315789468" fill="rgb(168, 219, 52)" x="931.5"></rect><rect class="bar" width="172" height="776" y="20" fill="rgb(253, 231, 37)" x="716.5"></rect><rect class="bar" width="172" height="626.2456140350877" y="169.75438596491233" fill="rgb(127, 211, 78)" x="501.5"></rect><rect class="bar" width="172" height="721.5438596491229" y="74.45614035087715" fill="rgb(210, 226, 27)" x="286.5"></rect><rect class="bar" width="172" height="776" y="20" fill="rgb(253, 231, 37)" x="71.5"></rect></g>
        <g id="x" transform="translate(0, 796)" fill="none" font-size="10" font-family="sans-serif" text-anchor="middle"><path class="domain" stroke="#000" d="M50.5,6V0.5H1125.5V6"></path><g class="tick" opacity="1" transform="translate(157.5,0)"><line stroke="#000" y2="6"></line><text fill="#000" y="9" dy="0.71em">4 seconds ago</text></g><g class="tick" opacity="1" transform="translate(372.5,0)"><line stroke="#000" y2="6"></line><text fill="#000" y="9" dy="0.71em">3 seconds ago</text></g><g class="tick" opacity="1" transform="translate(587.5,0)"><line stroke="#000" y2="6"></line><text fill="#000" y="9" dy="0.71em">2 seconds ago</text></g><g class="tick" opacity="1" transform="translate(802.5,0)"><line stroke="#000" y2="6"></line><text fill="#000" y="9" dy="0.71em">1 second ago</text></g><g class="tick" opacity="1" transform="translate(1017.5,0)"><line stroke="#000" y2="6"></line><text fill="#000" y="9" dy="0.71em">Now</text></g></g>
        <g id="y" transform="translate(50, 0)" fill="none" font-size="10" font-family="sans-serif" text-anchor="end"><path class="domain" stroke="#000" d="M-6,796.5H0.5V20.5H-6"></path><g class="tick" opacity="1" transform="translate(0,796.5)"><line stroke="#000" x2="-6"></line><text fill="#000" x="-9" dy="0.32em">0</text></g><g class="tick" opacity="1" transform="translate(0,728.4298245614035)"><line stroke="#000" x2="-6"></line><text fill="#000" x="-9" dy="0.32em">10</text></g><g class="tick" opacity="1" transform="translate(0,660.359649122807)"><line stroke="#000" x2="-6"></line><text fill="#000" x="-9" dy="0.32em">20</text></g><g class="tick" opacity="1" transform="translate(0,592.2894736842105)"><line stroke="#000" x2="-6"></line><text fill="#000" x="-9" dy="0.32em">30</text></g><g class="tick" opacity="1" transform="translate(0,524.219298245614)"><line stroke="#000" x2="-6"></line><text fill="#000" x="-9" dy="0.32em">40</text></g><g class="tick" opacity="1" transform="translate(0,456.1491228070176)"><line stroke="#000" x2="-6"></line><text fill="#000" x="-9" dy="0.32em">50</text></g><g class="tick" opacity="1" transform="translate(0,388.0789473684211)"><line stroke="#000" x2="-6"></line><text fill="#000" x="-9" dy="0.32em">60</text></g><g class="tick" opacity="1" transform="translate(0,320.00877192982455)"><line stroke="#000" x2="-6"></line><text fill="#000" x="-9" dy="0.32em">70</text></g><g class="tick" opacity="1" transform="translate(0,251.93859649122805)"><line stroke="#000" x2="-6"></line><text fill="#000" x="-9" dy="0.32em">80</text></g><g class="tick" opacity="1" transform="translate(0,183.86842105263156)"><line stroke="#000" x2="-6"></line><text fill="#000" x="-9" dy="0.32em">90</text></g><g class="tick" opacity="1" transform="translate(0,115.79824561403518)"><line stroke="#000" x2="-6"></line><text fill="#000" x="-9" dy="0.32em">100</text></g><g class="tick" opacity="1" transform="translate(0,47.728070175438575)"><line stroke="#000" x2="-6"></line><text fill="#000" x="-9" dy="0.32em">110</text></g></g>
        <g id="scale" transform="translate(437.5, 836)">
            <rect id="scaleRect" fill="url(#colorGradient)" width="300" height="20"></rect>
            <g id="scaleAxis" transform="translate(0, 20)" fill="none" font-size="10" font-family="sans-serif" text-anchor="middle"><path class="domain" stroke="#000" d="M0.5,6V0.5H300.5V6"></path><g class="tick" opacity="1" transform="translate(0.5,0)"><line stroke="#000" y2="6"></line><text fill="#000" y="9" dy="0.71em">0</text></g><g class="tick" opacity="1" transform="translate(26.81578947368421,0)"><line stroke="#000" y2="6"></line><text fill="#000" y="9" dy="0.71em">10</text></g><g class="tick" opacity="1" transform="translate(53.13157894736842,0)"><line stroke="#000" y2="6"></line><text fill="#000" y="9" dy="0.71em">20</text></g><g class="tick" opacity="1" transform="translate(79.44736842105263,0)"><line stroke="#000" y2="6"></line><text fill="#000" y="9" dy="0.71em">30</text></g><g class="tick" opacity="1" transform="translate(105.76315789473684,0)"><line stroke="#000" y2="6"></line><text fill="#000" y="9" dy="0.71em">40</text></g><g class="tick" opacity="1" transform="translate(132.07894736842104,0)"><line stroke="#000" y2="6"></line><text fill="#000" y="9" dy="0.71em">50</text></g><g class="tick" opacity="1" transform="translate(158.39473684210526,0)"><line stroke="#000" y2="6"></line><text fill="#000" y="9" dy="0.71em">60</text></g><g class="tick" opacity="1" transform="translate(184.71052631578948,0)"><line stroke="#000" y2="6"></line><text fill="#000" y="9" dy="0.71em">70</text></g><g class="tick" opacity="1" transform="translate(211.02631578947367,0)"><line stroke="#000" y2="6"></line><text fill="#000" y="9" dy="0.71em">80</text></g><g class="tick" opacity="1" transform="translate(237.3421052631579,0)"><line stroke="#000" y2="6"></line><text fill="#000" y="9" dy="0.71em">90</text></g><g class="tick" opacity="1" transform="translate(263.6578947368421,0)"><line stroke="#000" y2="6"></line><text fill="#000" y="9" dy="0.71em">100</text></g><g class="tick" opacity="1" transform="translate(289.9736842105263,0)"><line stroke="#000" y2="6"></line><text fill="#000" y="9" dy="0.71em">110</text></g></g>
        </g>
    </svg>